<?xml version="1.0" standalone="no"?>
<!DOCTYPE svg PUBLIC "-//W3C//DTD SVG 20010904//EN"
 "http://www.w3.org/TR/2001/REC-SVG-20010904/DTD/svg10.dtd">
<svg version="1.0" xmlns="http://www.w3.org/2000/svg"
 width="512.000000pt" height="512.000000pt" viewBox="0 0 512.000000 512.000000"
 preserveAspectRatio="xMidYMid meet">

<g transform="translate(0.000000,512.000000) scale(0.100000,-0.100000)"
fill="#000000" stroke="none">
<path d="M2440 5110 c-872 -83 -1506 -500 -1861 -1225 -294 -600 -368 -1447
-189 -2151 111 -435 311 -795 605 -1089 348 -349 774 -551 1315 -626 122 -17
533 -18 660 -1 567 76 998 295 1327 677 223 258 375 544 488 918 23 78 41 143
40 145 -1 1 -89 29 -196 61 -107 33 -380 116 -608 186 -227 69 -419 124 -426
121 -7 -2 -20 -46 -30 -98 -45 -233 -123 -438 -219 -573 -55 -76 -164 -178
-240 -224 -137 -82 -352 -129 -542 -117 -557 33 -867 394 -948 1106 -21 176
-21 542 -1 712 58 499 240 820 549 972 253 125 597 139 865 36 247 -95 427
-327 503 -646 20 -83 25 -93 43 -89 11 3 285 66 609 140 324 75 599 138 612
141 l22 6 -35 116 c-171 581 -507 1013 -983 1266 -193 102 -435 178 -692 217
-153 23 -515 33 -668 19z"/>
</g>
</svg>
