<?xml version="1.0" standalone="no"?>
<!DOCTYPE svg PUBLIC "-//W3C//DTD SVG 20010904//EN"
 "http://www.w3.org/TR/2001/REC-SVG-20010904/DTD/svg10.dtd">
<svg version="1.0" xmlns="http://www.w3.org/2000/svg"
 width="814.000000pt" height="814.000000pt" viewBox="0 0 814.000000 814.000000"
 preserveAspectRatio="xMidYMid meet">

<g transform="translate(0.000000,814.000000) scale(0.100000,-0.100000)"
fill="#000000" stroke="none">
<path d="M3675 8119 c-206 -20 -476 -70 -720 -134 -234 -61 -408 -130 -705
-281 -813 -412 -1425 -1030 -1833 -1850 -170 -341 -229 -512 -321 -925 -87
-391 -96 -467 -96 -807 0 -569 86 -1007 303 -1547 223 -557 510 -999 901
-1391 413 -412 863 -695 1460 -919 308 -115 483 -162 741 -201 127 -18 273
-40 325 -49 215 -34 621 -13 1005 51 397 66 501 93 808 215 855 339 1544 916
2007 1679 175 289 323 620 407 910 246 858 209 1871 -100 2660 -76 196 -246
533 -360 715 -625 996 -1574 1638 -2708 1830 -368 62 -772 78 -1114 44z m283
-1710 c252 -43 314 -57 440 -101 272 -94 734 -289 719 -304 -2 -3 -44 0 -91 6
-265 33 -652 30 -866 -6 -259 -44 -456 -133 -565 -257 -53 -60 -125 -203 -150
-297 -25 -96 -31 -374 -11 -508 27 -181 66 -332 136 -537 147 -431 202 -581
230 -634 41 -74 39 -84 -7 -77 -21 4 -381 60 -801 125 -419 65 -765 120 -768
123 -2 3 -11 41 -18 84 -8 43 -39 178 -70 299 -108 433 -112 582 -26 945 129
535 335 833 702 1013 241 118 574 194 793 179 33 -2 192 -26 353 -53z m337
-819 c163 -24 344 -90 459 -169 162 -112 310 -309 352 -471 22 -83 22 -226 1
-307 -39 -147 -117 -252 -230 -308 -175 -86 -423 -87 -631 -2 -308 126 -555
372 -611 609 -28 121 -13 265 41 372 48 96 108 142 294 227 138 63 179 69 325
49z m1043 -133 c112 -85 348 -372 487 -592 118 -187 208 -410 239 -590 20
-116 20 -306 0 -426 -33 -196 -146 -482 -259 -656 -174 -267 -450 -547 -746
-756 -290 -205 -717 -409 -1139 -545 -273 -88 -812 -214 -830 -195 -13 13
-840 2059 -840 2077 0 9 2 16 4 16 2 0 111 -24 243 -54 231 -53 440 -82 968
-138 117 -12 359 2 525 31 482 85 576 109 746 191 344 166 570 418 650 726 35
133 36 320 5 472 -26 126 -80 306 -126 420 -19 47 -35 88 -35 90 0 6 48 -25
108 -71z"/>
</g>
</svg>
