<?xml version="1.0" standalone="no"?>
<!DOCTYPE svg PUBLIC "-//W3C//DTD SVG 20010904//EN"
 "http://www.w3.org/TR/2001/REC-SVG-20010904/DTD/svg10.dtd">
<svg version="1.0" xmlns="http://www.w3.org/2000/svg"
 width="512.000000pt" height="512.000000pt" viewBox="0 0 512.000000 512.000000"
 preserveAspectRatio="xMidYMid meet">

<g transform="translate(0.000000,512.000000) scale(0.100000,-0.100000)"
fill="#000000" stroke="none">
<path d="M946 4728 c-9 -37 -7 -342 4 -489 9 -118 14 -141 41 -196 17 -34 54
-87 81 -117 l50 -56 -69 -84 c-82 -101 -125 -172 -162 -263 -55 -135 -66 -194
-66 -373 0 -143 3 -176 23 -245 49 -169 116 -281 269 -447 44 -48 88 -102 97
-121 18 -38 22 -152 6 -177 -12 -20 -65 -1 -270 96 -86 41 -161 74 -167 74
-18 0 -28 -331 -15 -520 16 -246 45 -334 143 -430 32 -32 93 -76 145 -104 152
-83 169 -101 209 -226 70 -215 209 -349 425 -410 41 -11 147 -30 235 -41 293
-37 486 -100 570 -188 21 -22 48 -41 58 -41 10 0 54 25 97 55 158 111 299 156
545 174 228 16 371 65 483 166 94 85 182 227 203 327 15 75 28 90 105 128 155
78 308 225 343 330 36 113 41 780 5 780 -7 0 -103 -45 -213 -100 l-201 -100 0
101 c0 121 11 150 81 209 28 23 74 74 103 114 151 203 225 426 213 646 -12
213 -85 391 -233 568 l-86 103 62 66 c93 99 100 119 111 346 9 206 16 467 11
467 -9 0 -1118 -561 -1222 -618 -253 -138 -355 -219 -366 -291 -8 -53 -31 -73
-50 -46 -8 10 -14 29 -14 42 0 84 -112 171 -448 352 -161 86 -1111 561 -1123
561 -4 0 -9 -10 -13 -22z m998 -926 c305 -105 529 -441 486 -729 -38 -253
-221 -484 -439 -555 -83 -26 -303 -36 -411 -18 -177 30 -346 163 -435 342 -59
121 -78 212 -72 343 8 174 71 308 205 437 202 196 437 259 666 180z m1591 12
c234 -57 434 -258 501 -504 27 -97 25 -264 -4 -357 -30 -96 -103 -203 -205
-299 -125 -119 -218 -158 -397 -170 -207 -14 -386 46 -521 173 -81 77 -127
148 -165 258 -26 73 -28 93 -29 225 0 125 3 155 24 220 29 94 47 130 105 206
56 74 155 153 250 198 152 72 285 87 441 50z m-895 -946 c65 -33 110 -104 110
-172 0 -43 -9 -71 -53 -158 -55 -110 -114 -197 -134 -198 -33 -1 -124 165
-164 301 -18 63 -20 80 -10 116 31 113 146 164 251 111z m-1597 -844 c166 -75
990 -486 1142 -569 212 -117 298 -177 344 -241 l40 -56 34 54 c63 98 167 157
985 565 463 231 596 293 605 284 8 -8 12 -65 12 -194 0 -170 -2 -185 -24 -235
-32 -70 -120 -150 -252 -229 -248 -147 -1263 -656 -1354 -679 -32 -8 -184 61
-690 316 -527 266 -782 407 -865 478 -47 40 -74 107 -95 235 -24 146 -18 317
11 317 3 0 51 -21 107 -46z"/>
<path d="M1633 3115 c-185 -94 -171 -361 23 -455 37 -19 55 -21 101 -16 102
12 172 57 216 141 30 56 30 164 0 220 -47 90 -106 127 -213 132 -66 4 -81 1
-127 -22z"/>
<path d="M3307 3136 c-153 -41 -228 -221 -153 -365 38 -70 145 -135 226 -134
31 0 65 10 106 31 101 51 134 107 134 227 0 121 -41 189 -133 223 -74 27 -125
32 -180 18z"/>
</g>
</svg>
